<?xml version="1.0" encoding="utf-8"?>
<!-- Generator: Adobe Illustrator 16.0.0, SVG Export Plug-In . SVG Version: 6.00 Build 0)  -->
<!DOCTYPE svg PUBLIC "-//W3C//DTD SVG 1.1//EN" "http://www.w3.org/Graphics/SVG/1.1/DTD/svg11.dtd">
<svg version="1.1" id="_x31_" xmlns="http://www.w3.org/2000/svg" xmlns:xlink="http://www.w3.org/1999/xlink" x="0px" y="0px"
	 width="142px" height="49px" viewBox="0 0 142 49" enable-background="new 0 0 142 49" xml:space="preserve">
<g>
	<path fill="#00A7E0" d="M6.276,28.178c0.11,1.743,1.854,2.573,3.819,2.573c1.439,0,2.602-0.194,3.736-0.581l0.553,2.852
		c-1.383,0.58-3.072,0.857-4.898,0.857c-4.594,0-7.222-2.656-7.222-6.893c0-3.43,2.131-7.221,6.835-7.221
		c4.372,0,6.032,3.404,6.032,6.752c0,0.719-0.082,1.355-0.138,1.66H6.276z M11.23,25.299c0-1.022-0.443-2.739-2.38-2.739
		c-1.771,0-2.491,1.633-2.602,2.739H11.23z"/>
	<path fill="#00A7E0" d="M17.785,15.199c1.107-0.194,3.32-0.387,5.452-0.387c2.574,0,4.151,0.249,5.535,1.051
		c1.3,0.692,2.213,1.965,2.213,3.68c0,1.633-0.969,3.155-3.071,3.957v0.056c2.13,0.554,3.708,2.186,3.708,4.566
		c0,1.716-0.775,3.044-1.937,3.985c-1.356,1.078-3.625,1.688-7.333,1.688c-2.075,0-3.625-0.138-4.566-0.276V15.199z M21.964,22.339
		h1.384c2.241,0,3.403-0.913,3.403-2.297c0-1.411-1.08-2.158-2.988-2.158c-0.941,0-1.467,0.056-1.799,0.111V22.339z M21.964,30.613
		c0.415,0.055,0.913,0.055,1.632,0.055c1.909,0,3.597-0.747,3.597-2.712c0-1.854-1.688-2.602-3.79-2.602h-1.439V30.613z"/>
	<path fill="#00A7E0" d="M45.702,30.336c0,1.273,0.056,2.519,0.222,3.266h-3.792l-0.249-1.356h-0.083
		c-0.886,1.079-2.27,1.661-3.875,1.661c-2.74,0-4.373-1.992-4.373-4.151c0-3.515,3.155-5.175,7.942-5.175v-0.166
		c0-0.747-0.387-1.771-2.462-1.771c-1.384,0-2.851,0.471-3.737,1.024l-0.774-2.712c0.941-0.525,2.795-1.217,5.258-1.217
		c4.511,0,5.921,2.657,5.921,5.866V30.336z M41.634,27.209c-2.214,0-3.93,0.525-3.93,2.131c0,1.08,0.72,1.605,1.661,1.605
		c1.023,0,1.909-0.692,2.186-1.551c0.056-0.221,0.083-0.47,0.083-0.719V27.209z"/>
	<path fill="#00A7E0" d="M62.414,26.684c0,4.953-3.515,7.223-7.14,7.223c-3.957,0-7.001-2.602-7.001-6.974
		c0-4.4,2.878-7.195,7.25-7.195C59.647,19.737,62.414,22.587,62.414,26.684z M52.618,26.822c0,2.323,0.969,4.066,2.768,4.066
		c1.66,0,2.684-1.632,2.684-4.094c0-1.994-0.775-4.041-2.684-4.041C53.393,22.754,52.618,24.83,52.618,26.822z"/>
	<path fill="#00A7E0" d="M84.41,33.104c-0.748,0.359-2.52,0.803-4.76,0.803c-6.449,0-9.769-4.041-9.769-9.354
		c0-6.365,4.539-9.879,10.183-9.879c2.187,0,3.846,0.416,4.595,0.83l-0.886,3.322c-0.831-0.36-2.02-0.692-3.543-0.692
		c-3.32,0-5.922,2.02-5.922,6.172c0,3.735,2.213,6.086,5.95,6.086c1.302,0,2.684-0.248,3.542-0.609L84.41,33.104z"/>
	<path fill="#00A7E0" d="M86.979,13.954h4.206v19.648h-4.206V13.954z"/>
	<path fill="#00A7E0" d="M107.953,26.684c0,4.953-3.515,7.223-7.14,7.223c-3.956,0-7.001-2.602-7.001-6.974
		c0-4.4,2.879-7.195,7.25-7.195C105.186,19.737,107.953,22.587,107.953,26.684z M98.157,26.822c0,2.323,0.97,4.066,2.767,4.066
		c1.662,0,2.686-1.632,2.686-4.094c0-1.994-0.776-4.041-2.686-4.041C98.933,22.754,98.157,24.83,98.157,26.822z"/>
	<path fill="#00A7E0" d="M123.309,29.257c0,1.771,0.057,3.21,0.111,4.345h-3.653l-0.194-1.91h-0.082
		c-0.525,0.83-1.799,2.215-4.234,2.215c-2.768,0-4.76-1.717-4.76-5.895v-7.942h4.207v7.278c0,1.965,0.636,3.154,2.129,3.154
		c1.164,0,1.855-0.803,2.105-1.467c0.109-0.25,0.164-0.553,0.164-0.913v-8.053h4.207V29.257z"/>
	<path fill="#00A7E0" d="M139.797,13.954v15.608c0,1.522,0.055,3.126,0.111,4.04h-3.738l-0.162-1.965h-0.086
		c-0.828,1.494-2.49,2.27-4.232,2.27c-3.211,0-5.783-2.74-5.783-6.946c-0.029-4.566,2.822-7.223,6.061-7.223
		c1.686,0,2.961,0.609,3.57,1.522h0.053v-7.306H139.797z M135.59,25.797c0-0.221,0-0.525-0.053-0.773
		c-0.25-1.107-1.164-2.048-2.465-2.048c-1.938,0-2.903,1.716-2.903,3.847c0,2.296,1.134,3.734,2.877,3.734
		c1.218,0,2.212-0.83,2.462-2.02c0.056-0.305,0.082-0.637,0.082-0.969V25.797z"/>
</g>
</svg>
